<?xml version="1.0" standalone="no"?>
<!DOCTYPE svg PUBLIC "-//W3C//DTD SVG 20010904//EN"
 "http://www.w3.org/TR/2001/REC-SVG-20010904/DTD/svg10.dtd">
<svg version="1.0" xmlns="http://www.w3.org/2000/svg"
 width="1654.000000pt" height="1625.000000pt" viewBox="0 0 1654.000000 1625.000000"
 preserveAspectRatio="xMidYMid meet">

<g transform="translate(0.000000,1625.000000) scale(0.100000,-0.100000)"
fill="#000000" stroke="none">
<path d="M7737 13756 c-55 -15 -108 -61 -140 -121 -16 -30 -21 -58 -22 -112 0
-64 3 -76 31 -116 l31 -44 -29 -19 c-38 -25 -75 -87 -88 -151 -9 -42 -8 -64 4
-112 35 -138 138 -219 277 -221 75 0 139 23 195 73 65 57 94 123 94 212 0 86
-23 139 -78 186 l-40 33 24 29 c31 37 47 101 41 159 -18 149 -157 244 -300
204z m126 -166 c49 -39 42 -116 -14 -145 -41 -22 -65 -18 -101 14 -25 22 -32
36 -32 66 0 72 88 111 147 65z m-9 -324 c100 -42 110 -171 17 -233 -62 -42
-147 -19 -183 48 -35 65 -13 138 54 179 39 23 67 25 112 6z"/>
<path d="M9110 13761 c-128 -27 -230 -150 -230 -278 l0 -33 80 0 80 0 0 30 c0
74 57 130 132 130 43 0 55 -5 83 -33 48 -48 54 -93 21 -161 -21 -44 -63 -88
-206 -221 l-180 -167 0 -74 0 -74 280 0 280 0 0 75 0 75 -167 0 -166 0 138
132 c111 107 144 144 167 193 49 104 34 229 -38 313 -60 71 -182 112 -274 93z"/>
<path d="M7080 13675 l0 -75 55 0 55 0 0 -360 0 -360 80 0 80 0 0 435 0 435
-135 0 -135 0 0 -75z"/>
<path d="M8377 13555 c-163 -248 -181 -287 -181 -385 0 -123 54 -219 156 -275
48 -27 62 -30 143 -30 74 0 97 4 132 23 190 101 227 373 70 507 -44 38 -133
70 -173 62 -13 -2 -24 -2 -24 0 0 2 26 43 58 91 32 48 75 113 95 145 l37 57
-93 0 -93 0 -127 -195z m190 -265 c70 -43 92 -151 45 -218 -83 -115 -262 -52
-262 93 0 55 43 121 90 138 34 12 96 6 127 -13z"/>
<path d="M4989 12975 c-113 -41 -202 -124 -239 -223 -29 -74 -35 -172 -17
-239 l14 -53 -488 0 -489 0 0 -167 c0 -188 9 -221 71 -280 67 -63 88 -67 363
-73 223 -4 250 -7 260 -22 8 -13 8 -23 0 -35 -9 -15 -32 -19 -145 -23 -74 -3
-143 -11 -155 -17 -36 -20 -47 -65 -42 -166 7 -135 42 -193 140 -237 l47 -20
-50 -66 c-94 -125 -133 -236 -133 -384 -1 -111 14 -177 60 -279 l34 -74 -281
-546 c-154 -300 -292 -561 -306 -580 -14 -18 -49 -44 -77 -57 -202 -94 -408
119 -306 316 10 19 132 163 271 320 318 360 311 352 353 440 50 106 66 178 66
295 0 120 -16 190 -71 304 -33 69 -55 100 -127 171 -100 98 -186 149 -308 180
-94 24 -236 26 -319 5 -166 -44 -279 -168 -306 -336 -20 -123 12 -220 110
-339 75 -90 88 -125 71 -189 -17 -64 -73 -106 -155 -113 l-30 -3 50 -33 c73
-48 141 -65 243 -60 183 7 320 115 374 292 48 159 -9 337 -142 439 -53 41 -66
74 -46 120 25 62 84 62 205 1 123 -61 215 -176 256 -318 22 -77 16 -208 -13
-289 -28 -78 -67 -131 -252 -337 -384 -431 -398 -449 -426 -555 -27 -98 -10
-225 41 -311 37 -63 112 -131 183 -166 54 -27 79 -33 151 -36 47 -2 103 0 124
6 l37 10 0 -179 0 -179 -435 0 -435 0 0 -635 0 -635 525 0 525 0 0 270 0 269
-142 3 -142 3 107 68 107 67 390 0 390 0 0 390 c0 215 3 390 8 389 4 0 147
-62 317 -137 l310 -137 3 -473 2 -472 183 0 182 0 120 -120 120 -120 432 0
433 0 0 270 0 270 -244 0 -244 0 -36 150 c-20 83 -36 159 -36 169 0 11 46 148
101 306 l101 288 -358 358 -359 359 -373 2 -374 3 298 189 297 189 621 -140
621 -140 5 -574 5 -574 795 -442 c437 -243 809 -450 826 -459 l31 -17 827 458
826 458 0 573 c0 537 1 573 18 578 57 17 1226 277 1236 274 7 -2 143 -86 303
-188 l291 -185 -372 -3 -371 -2 -357 -358 c-197 -196 -358 -361 -358 -367 0
-5 45 -139 100 -296 l101 -285 -38 -160 -38 -159 -248 -3 -247 -2 0 -270 0
-270 433 0 432 0 120 120 120 120 187 0 188 0 0 473 0 472 314 138 c172 75
316 137 320 137 3 0 6 -175 6 -390 l0 -390 388 0 388 0 90 -56 c139 -88 140
-84 -24 -84 l-142 0 0 -270 0 -270 530 0 530 0 0 635 0 635 -437 2 -438 3 0
175 c0 151 2 174 15 171 8 -3 54 -7 102 -9 64 -3 101 1 140 13 238 77 355 336
257 566 -27 62 -53 93 -359 438 -124 139 -237 272 -251 295 -122 197 -91 447
77 613 69 67 163 119 237 129 40 6 49 3 71 -19 46 -46 37 -77 -47 -160 -48
-46 -84 -93 -103 -132 -27 -56 -29 -68 -29 -175 0 -104 3 -121 27 -173 37 -79
117 -160 196 -199 56 -28 78 -33 158 -36 108 -5 168 10 249 61 l50 32 -50 5
c-86 9 -145 71 -145 155 0 48 22 89 82 152 27 29 61 79 76 110 24 52 27 70 27
163 0 99 -2 109 -33 173 -85 171 -235 247 -465 234 -247 -14 -455 -151 -562
-372 -98 -201 -99 -403 -1 -600 40 -81 74 -123 320 -400 158 -178 286 -331
301 -359 49 -96 26 -209 -56 -279 -91 -79 -215 -76 -303 6 -39 36 -84 118
-326 588 -154 300 -280 551 -280 556 0 6 13 39 30 74 42 92 60 171 60 270 0
155 -54 306 -148 410 -38 42 -41 50 -25 54 57 17 110 55 138 100 28 45 30 56
33 160 4 107 3 113 -21 141 l-25 29 -141 3 c-140 4 -141 4 -147 28 -13 51 0
54 237 54 120 0 241 5 269 11 66 14 127 62 159 124 24 46 26 60 29 217 l3 168
-491 0 -492 0 8 28 c5 15 9 72 9 127 0 88 -3 107 -27 157 -54 116 -176 204
-298 215 -136 13 -140 4 -140 -297 l0 -230 -83 0 c-282 0 -556 -113 -767 -316
-149 -144 -254 -321 -307 -521 -24 -88 -27 -117 -27 -273 -1 -175 3 -204 50
-367 l6 -23 -146 0 -146 0 0 750 0 750 -1655 0 -1655 0 0 -750 0 -750 -140 0
c-105 0 -140 3 -140 13 0 6 9 46 20 87 68 260 41 526 -79 775 -183 380 -575
625 -1000 625 l-78 0 1 239 1 239 -24 26 c-21 23 -32 26 -85 25 -34 0 -77 -6
-97 -14z m31 -370 c0 -205 0 -205 -61 -138 -61 65 -76 150 -40 228 17 39 72
95 92 95 5 0 9 -79 9 -185z m6536 169 c33 -22 71 -89 80 -140 11 -70 -25 -151
-86 -194 l-30 -21 0 185 c0 102 2 186 5 186 3 0 17 -7 31 -16z m-6619 -516
c79 -29 162 -112 191 -191 62 -165 -5 -347 -160 -432 l-53 -30 -293 -3 c-316
-3 -322 -2 -322 48 l0 28 98 4 c79 3 105 8 139 28 150 84 138 312 -20 386 -50
23 -59 24 -290 24 l-238 0 -24 25 c-21 20 -25 34 -25 80 l0 55 470 0 c457 0
471 -1 527 -22z m583 -9 c41 -11 116 -40 165 -64 440 -217 636 -730 457 -1193
-45 -118 -155 -272 -245 -346 l-44 -36 -97 22 c-53 12 -96 26 -96 31 0 5 15
26 33 47 78 92 155 249 194 398 22 82 26 119 26 242 0 189 -29 322 -106 475
-75 150 -221 314 -359 404 -38 24 -68 45 -68 47 0 5 58 -6 140 -27z m4218
-1685 l-3 -1715 -730 -405 c-401 -222 -735 -403 -742 -402 -6 2 -340 185 -742
407 l-731 405 0 1713 0 1713 1475 0 1475 0 -2 -1716z m1411 1703 c-2 -1 -31
-20 -64 -42 -196 -126 -352 -333 -419 -557 -99 -327 -35 -682 169 -949 26 -33
46 -62 44 -63 -2 -2 -47 -13 -99 -24 -83 -18 -98 -19 -117 -7 -45 30 -128 124
-184 207 -103 157 -149 314 -149 513 0 250 81 458 249 637 110 117 233 198
381 250 79 28 215 53 189 35z m1441 -47 c0 -101 3 -100 -272 -100 -140 0 -249
-5 -273 -11 -25 -7 -58 -29 -86 -58 -109 -108 -87 -275 45 -343 30 -16 65 -23
134 -26 l92 -4 0 -28 c0 -50 -6 -51 -317 -48 -280 3 -289 4 -336 27 -66 33
-128 96 -163 166 -25 52 -29 71 -29 145 0 73 4 93 28 142 45 91 125 160 217
189 14 4 235 8 493 8 l467 1 0 -60z m-1370 -161 c-16 -59 -16 -171 0 -239 19
-83 78 -188 140 -250 100 -99 227 -150 377 -150 155 0 255 -36 353 -127 133
-123 179 -317 116 -491 -23 -63 -89 -153 -144 -194 -111 -84 -211 -112 -402
-112 -157 0 -229 15 -358 75 -314 145 -503 440 -503 784 0 223 65 399 215 579
38 45 206 180 214 172 2 -2 -2 -24 -8 -47z m-5836 -3 c118 -85 210 -197 276
-339 60 -130 75 -201 75 -362 -1 -154 -17 -234 -74 -359 -144 -318 -484 -524
-831 -503 -243 15 -397 101 -480 267 -121 242 -6 534 248 631 43 16 91 23 192
29 97 5 151 13 193 28 217 78 360 294 343 517 -3 44 -8 92 -12 108 -3 15 -3
27 1 27 4 0 35 -20 69 -44z m8134 -875 c22 -38 27 -58 27 -111 -1 -81 -18
-115 -100 -196 -35 -34 -71 -76 -81 -95 -19 -37 -25 -128 -10 -168 l8 -23 -32
18 c-18 11 -46 39 -63 64 -26 37 -32 57 -35 112 -5 89 19 139 100 210 76 65
108 128 108 211 l0 57 25 -16 c14 -9 38 -38 53 -63z m-10425 10 c7 -80 48
-155 110 -199 126 -90 142 -248 35 -354 -49 -50 -77 -64 -58 -29 15 29 12 116
-5 159 -9 20 -47 69 -85 107 -38 39 -76 87 -85 107 -19 46 -20 128 -2 171 15
35 64 97 77 97 4 0 10 -27 13 -59z m3517 -577 c0 -162 -1 -175 -17 -170 -23 7
-510 116 -517 116 -4 0 17 28 46 63 29 34 68 86 87 115 l33 52 184 0 184 0 0
-176z m3722 118 c20 -31 57 -81 83 -111 25 -29 44 -55 42 -57 -2 -2 -113 -28
-248 -59 -134 -30 -254 -57 -266 -60 l-23 -5 0 175 0 175 188 0 187 0 37 -58z
m-4305 -342 c294 -66 545 -123 559 -126 23 -6 24 -9 24 -98 l0 -92 -677 153
c-373 84 -680 153 -682 153 -3 0 36 20 85 44 49 25 103 54 119 65 17 12 32 21
33 21 2 0 244 -54 539 -120z m5079 84 c32 -20 85 -49 118 -64 55 -25 59 -29
36 -34 -14 -4 -320 -73 -680 -155 l-655 -147 -3 89 c-1 49 -1 91 0 93 4 3
1096 251 1115 253 7 1 38 -15 69 -35z m-6621 -80 c51 -24 142 -50 335 -95 146
-34 268 -65 272 -68 5 -4 -174 -123 -397 -265 l-405 -257 0 -615 0 -614 -327
0 -328 0 -245 -158 -245 -158 -3 -92 -3 -92 226 0 225 0 0 -90 0 -90 -345 0
-345 0 0 455 0 455 435 0 435 0 0 315 0 315 269 522 c147 288 278 542 290 566
l22 43 32 -21 c18 -12 64 -37 102 -56z m7988 -484 l287 -560 0 -320 0 -320
440 0 440 0 0 -455 0 -455 -350 0 -350 0 0 90 0 90 225 0 225 0 0 93 0 93
-247 157 -247 157 -328 0 -328 0 0 618 -1 617 -403 255 c-222 140 -401 258
-397 261 3 3 42 13 86 23 407 91 532 129 615 189 19 15 37 26 40 26 3 1 134
-251 293 -559z m-6738 -590 l290 -290 -47 -132 c-25 -73 -68 -194 -94 -269
l-48 -136 59 -256 60 -257 227 0 228 0 0 -90 0 -90 -308 0 -307 0 -125 125
-125 125 -122 0 -123 0 0 438 0 437 -410 179 -410 180 0 163 0 163 482 0 482
0 291 -290z m6325 128 l0 -163 -410 -179 -410 -180 0 -438 0 -438 -128 0 -127
0 -125 -125 -125 -125 -302 0 -303 0 0 90 0 90 225 0 224 0 10 38 c5 20 32
136 60 257 l51 220 -94 265 -95 265 292 293 292 292 482 0 483 0 0 -162z"/>
<path d="M8220 11899 c-70 -10 -121 -36 -172 -86 -96 -95 -119 -226 -60 -346
l32 -64 -50 -217 c-28 -120 -50 -220 -50 -222 0 -2 -224 -4 -497 -4 l-498 0
404 -404 404 -404 -102 -446 c-56 -245 -103 -454 -104 -464 -1 -19 96 -357
100 -345 2 4 57 247 123 538 66 292 124 538 128 548 6 14 43 -19 197 -173
l190 -190 192 192 c106 106 194 190 196 188 2 -3 59 -246 126 -540 67 -294
124 -542 127 -550 3 -8 29 61 56 155 l51 169 -78 341 c-43 187 -91 394 -106
460 l-28 120 402 402 401 403 -494 2 -494 3 -47 205 c-26 113 -48 215 -48 226
-1 12 11 43 27 70 24 43 27 60 27 134 0 72 -4 92 -27 135 -63 119 -192 184
-328 164z m141 -208 c35 -35 39 -44 39 -91 0 -47 -4 -56 -39 -91 -34 -35 -44
-39 -87 -39 -61 0 -110 28 -130 75 -18 45 -18 69 3 112 22 48 66 73 127 73 43
0 53 -4 87 -39z m-50 -392 c21 5 41 6 43 2 6 -9 76 -311 76 -327 0 -11 -33
-14 -165 -14 l-165 0 5 23 c13 55 65 284 70 303 4 20 9 21 51 13 26 -5 63 -5
85 0z m-438 -516 c3 -6 -53 -260 -88 -402 -6 -22 -24 -6 -216 185 -115 115
-209 212 -209 216 0 10 508 10 513 1z m668 -283 l66 -285 -171 -173 -171 -172
-169 169 -168 168 42 184 c23 101 53 232 67 292 l25 107 206 -2 207 -3 66
-285z m429 75 c-118 -118 -216 -212 -217 -208 -8 30 -93 406 -93 414 0 5 108
9 262 9 l263 0 -215 -215z"/>
<path d="M9097 6343 c-4 -3 -7 -255 -7 -560 l0 -553 105 0 105 0 0 235 0 235
225 0 225 0 0 -235 0 -235 105 0 105 0 0 560 0 561 -102 -3 -103 -3 -3 -222
-2 -223 -225 0 -225 0 0 225 0 225 -98 0 c-54 0 -102 -3 -105 -7z"/>
<path d="M10230 5790 l0 -560 100 0 100 0 0 402 c0 338 2 400 13 388 8 -8 114
-189 236 -402 l223 -388 114 0 114 0 0 560 0 561 -102 -3 -103 -3 -5 -399 -5
-398 -228 401 -229 401 -114 0 -114 0 0 -560z"/>
<path d="M11400 5790 l0 -560 100 0 100 0 0 560 0 560 -100 0 -100 0 0 -560z"/>
<path d="M14030 5790 l0 -560 400 0 400 0 0 105 0 105 -295 0 -295 0 -2 453
-3 452 -102 3 -103 3 0 -561z"/>
<path d="M1710 5786 l0 -556 100 0 100 0 0 225 0 225 43 0 43 0 164 -225 164
-225 124 0 c96 0 121 3 115 13 -4 6 -81 107 -170 224 -90 117 -163 214 -163
217 0 2 15 8 33 11 111 24 215 115 243 213 22 73 15 179 -16 250 -28 65 -92
123 -169 154 -52 21 -73 23 -333 26 l-278 3 0 -555z m519 346 c47 -23 72 -61
78 -113 6 -62 -20 -108 -77 -136 -39 -21 -59 -23 -182 -23 l-138 0 0 145 0
145 143 0 c115 0 148 -3 176 -18z"/>
<path d="M2770 5785 l0 -555 100 0 100 0 0 555 0 555 -100 0 -100 0 0 -555z"/>
<path d="M3626 6325 c-101 -26 -185 -74 -263 -151 -220 -215 -227 -565 -16
-786 106 -111 226 -166 378 -175 168 -10 316 47 435 168 108 108 160 239 160
401 l0 88 -280 0 -280 0 0 -95 0 -95 180 0 c99 0 180 -2 180 -4 0 -2 -7 -21
-16 -42 -101 -242 -410 -309 -602 -130 -177 166 -150 453 55 584 138 88 314
77 441 -28 l37 -30 67 67 68 68 -37 33 c-54 46 -116 82 -192 110 -85 31 -229
39 -315 17z"/>
<path d="M4601 5797 c-101 -298 -186 -548 -189 -554 -3 -10 20 -13 96 -13
l100 0 32 90 32 90 247 0 247 0 29 -90 29 -90 102 0 102 0 -185 555 -185 555
-136 0 -137 0 -184 -543z m408 81 c46 -139 86 -259 89 -265 3 -10 -36 -13
-177 -13 -100 0 -181 3 -181 7 0 15 175 523 180 523 3 0 43 -114 89 -252z"/>
<path d="M6000 6240 l0 -100 150 0 150 0 0 -455 0 -455 105 0 105 0 0 455 0
455 150 0 150 0 0 100 0 100 -405 0 -405 0 0 -100z"/>
<path d="M7020 5785 l0 -555 370 0 370 0 0 100 0 100 -265 0 -265 0 0 125 0
125 225 0 225 0 0 105 0 105 -225 0 -225 0 0 125 0 125 265 0 265 0 0 100 0
100 -370 0 -370 0 0 -555z"/>
<path d="M8338 6325 c-215 -54 -377 -224 -423 -440 -18 -88 -18 -132 0 -220
31 -146 127 -290 246 -366 161 -103 385 -117 552 -33 71 36 148 94 186 142
l31 40 -77 56 -77 55 -35 -38 c-213 -227 -592 -111 -641 196 -23 144 43 292
168 372 134 86 311 75 441 -28 l38 -30 67 68 68 68 -54 43 c-104 83 -203 120
-338 126 -63 2 -114 -1 -152 -11z"/>
<path d="M12235 6330 c-211 -42 -385 -207 -439 -416 -78 -302 114 -618 420
-690 131 -31 296 -6 413 63 52 30 171 140 171 157 -1 6 -34 35 -75 63 l-75 53
-41 -45 c-119 -129 -323 -150 -476 -48 -95 63 -151 160 -160 278 -12 158 66
294 211 365 126 62 276 46 386 -41 l52 -41 67 67 66 66 -49 44 c-119 106 -311
157 -471 125z"/>
<path d="M13057 5788 c-103 -304 -187 -556 -187 -560 0 -5 44 -8 98 -8 l98 0
30 93 30 92 249 0 248 0 31 -90 31 -90 98 -3 c73 -2 97 0 97 10 0 7 -82 259
-182 560 l-183 548 -135 0 -135 0 -188 -552z m415 80 l87 -263 -176 -3 c-97
-1 -178 0 -181 2 -6 6 171 526 178 526 3 0 45 -118 92 -262z"/>
<path d="M9962 4479 c-74 -9 -172 -52 -223 -97 -19 -17 -48 -55 -65 -84 -27
-49 -29 -61 -29 -153 0 -112 15 -153 77 -211 50 -48 102 -70 259 -109 225 -56
269 -85 269 -176 0 -97 -97 -157 -239 -147 -82 6 -146 34 -195 84 l-37 38 -75
-75 -75 -74 43 -39 c83 -75 207 -116 351 -116 193 0 336 73 405 205 24 44 27
61 27 145 -1 83 -4 102 -27 146 -31 59 -84 109 -142 133 -23 10 -102 33 -176
51 -160 39 -217 64 -248 111 -40 58 -15 130 59 174 26 15 51 20 109 19 90 0
154 -25 203 -79 l32 -35 69 69 68 68 -32 37 c-81 92 -242 137 -408 115z"/>
<path d="M3512 4053 c3 -396 4 -410 25 -463 48 -118 135 -198 260 -242 58 -20
86 -23 198 -22 107 1 140 4 189 22 129 47 214 129 259 248 21 57 22 74 25 462
l3 402 -110 0 -110 0 -3 -377 c-3 -365 -4 -379 -25 -418 -48 -90 -117 -128
-235 -128 -66 -1 -85 4 -134 29 -46 24 -63 39 -88 84 l-31 55 -3 378 -3 377
-110 0 -110 0 3 -407z"/>
<path d="M4750 3900 l0 -560 105 0 105 0 0 401 c0 224 4 398 9 395 4 -3 111
-183 236 -401 l227 -395 114 0 114 0 0 560 0 560 -105 0 -105 0 -2 -399 -3
-400 -228 400 -228 399 -120 0 -119 0 0 -560z"/>
<path d="M5940 3900 l0 -560 115 0 115 0 0 560 0 560 -115 0 -115 0 0 -560z"/>
<path d="M6304 4443 c4 -10 97 -261 209 -558 l203 -540 138 0 138 0 209 555
c115 305 209 556 209 558 0 1 -52 1 -117 0 l-116 -3 -153 -425 c-85 -234 -157
-432 -160 -440 -9 -21 -18 4 -184 468 l-144 402 -119 0 c-108 0 -118 -1 -113
-17z"/>
<path d="M7580 3900 l0 -560 370 0 370 0 0 100 0 100 -265 0 -265 0 0 130 0
130 230 0 230 0 0 100 0 100 -230 0 -230 0 0 130 0 130 265 0 265 0 0 100 0
100 -370 0 -370 0 0 -560z"/>
<path d="M8600 3900 l0 -560 100 0 100 0 0 225 0 225 44 0 44 0 164 -225 163
-225 123 0 c67 0 122 2 122 5 0 3 -74 102 -165 220 -90 117 -166 219 -167 225
-2 6 27 21 63 33 81 28 132 65 170 126 40 63 52 113 47 201 -5 89 -31 152 -82
203 -88 89 -171 107 -488 107 l-238 0 0 -560z m537 338 c104 -69 73 -226 -51
-257 -25 -6 -99 -11 -165 -11 l-121 0 0 151 0 151 148 -4 c142 -3 150 -4 189
-30z"/>
<path d="M10670 3900 l0 -560 110 0 110 0 0 560 0 560 -110 0 -110 0 0 -560z"/>
<path d="M11070 4360 l0 -100 150 0 150 0 0 -460 0 -460 105 0 105 0 0 460 0
460 150 0 150 0 0 100 0 100 -405 0 -405 0 0 -100z"/>
<path d="M11966 4448 c4 -7 101 -161 216 -341 l208 -328 0 -219 0 -220 110 0
110 0 0 226 0 226 210 334 209 334 -127 0 -127 0 -135 -230 c-74 -126 -139
-228 -143 -227 -5 1 -69 104 -142 227 l-133 225 -132 3 c-105 2 -130 0 -124
-10z"/>
</g>
</svg>
